<?xml version="1.0" ?><!-- Uploaded to: SVG Repo, www.svgrepo.com, Generator: SVG Repo Mixer Tools -->
<svg width="800px" height="800px" viewBox="0 0 32 32" id="object" xmlns="http://www.w3.org/2000/svg"><defs><style>.cls-1{fill:#ffd599;}.cls-2{fill:#6d6daa;}.cls-3{fill:#d6b5b0;}.cls-4{fill:#eef5fd;}.cls-5{fill:#ff9797;}</style></defs><title/><rect class="cls-1" height="20" width="28" x="2" y="6"/><path class="cls-2" d="M30,27H2a1,1,0,0,1-1-1V6A1,1,0,0,1,2,5H30a1,1,0,0,1,1,1V26A1,1,0,0,1,30,27ZM3,25H29V7H3Z"/><rect class="cls-3" height="4" width="28" x="2" y="6"/><path class="cls-2" d="M30,11H2a1,1,0,0,1-1-1V6A1,1,0,0,1,2,5H30a1,1,0,0,1,1,1v4A1,1,0,0,1,30,11ZM3,9H29V7H3Z"/><rect class="cls-4" height="4" width="28" x="2" y="10"/><path class="cls-2" d="M30,15H2a1,1,0,0,1-1-1V10A1,1,0,0,1,2,9H30a1,1,0,0,1,1,1v4A1,1,0,0,1,30,15ZM3,13H29V11H3Z"/><circle class="cls-5" cx="23" cy="20" r="3"/><path class="cls-2" d="M23,24a4,4,0,1,1,4-4A4,4,0,0,1,23,24Zm0-6a2,2,0,1,0,2,2A2,2,0,0,0,23,18Z"/></svg>